# xmcd
#
# Track frame offsets:
#	150
#	10389
#	24949
#	40245
#	53165
#	67105
#	78014
#	90958
#	101620
#	114502
#	128041
#	141819
#	175895
#	200239
#	225735
#	270457
#
# Disc length: 3980 seconds
#
# Revision: 1
# Processed by: cddbd v1.5.2PL0 Copyright (c) Steve Scherf et al.
# Submitted via: audiograbber 1.83.01
#
DISCID=cf0f8a10
DTITLE=Miles Davis - Quadromania, CD 1
DYEAR=1900
DGENRE=Jazz
TTITLE0=Israel
TTITLE1=Rouge
TTITLE2=Darn That Dream
TTITLE3=Odjenar
TTITLE4=Hibeck
TTITLE5=Yesterdays
TTITLE6=Ezz-Thetic
TTITLE7=Morpheus
TTITLE8=Down
TTITLE9=Blue Room
TTITLE10=Whispering
TTITLE11=Dig
TTITLE12=Its Only A Papermoon
TTITLE13=Denial
TTITLE14=Bluing
TTITLE15=Out Of The Blue
EXTD=
EXTT0=
EXTT1=
EXTT2=
EXTT3=
EXTT4=
EXTT5=
EXTT6=
EXTT7=
EXTT8=
EXTT9=
EXTT10=
EXTT11=
EXTT12=
EXTT13=
EXTT14=
EXTT15=
PLAYORDER=
